<?xml version="1.0" encoding="UTF-8"?>
<svg id="Layer_1" data-name="Layer 1" xmlns="http://www.w3.org/2000/svg" viewBox="0 0 3211.15 1126.77">
  <defs>
    <style>
      .cls-1 {
        fill: #c00c3f;
      }

      .cls-2 {
        fill: #fff;
      }

      .cls-3 {
        fill: #6d6e71;
      }
    </style>
  </defs>
  <polygon class="cls-3" points="1219.07 313.08 1106.89 313.08 1106.89 798.69 1451.47 798.69 1451.47 704.13 1219.07 704.13 1219.07 313.08"/>
  <path class="cls-3" d="M1698.26,613.6h91.3v84.87c-16.78,6.44-49.61,12.88-80.85,12.88-101,0-134.67-51.32-134.67-155.51s32.02-157.85,133.01-157.85c56.08,0,88.16,17.64,114.58,51.28l69.78-64.05c-42.49-60.91-117.05-79.35-186.76-79.35-157.07,0-239.63,85.73-239.63,249.17s74.52,250.81,238.84,250.81c75.29,0,149.02-19.21,189.13-47.26v-235.57h-194.73v90.59Z"/>
  <path class="cls-3" d="M1993.26,320.05v71.21h98.19v18.31c0,73.41-29.69,112.27-109.55,137.62l30.23,67.99c55.05-12.92,109-45.32,131.13-89.56,23.72,44.24,75.6,74.99,123.59,86.32l38.29-77.67c-69.6-15.09-119.77-52.91-119.77-125.23v-17.79h96.56v-71.21h-288.67ZM2440.63,310.3h-90.13v102.54h-84.74v73.92h84.74v187.3h79.35c6.45-25.41,10.78-68.04,10.78-98.78v-264.99ZM2449.79,740.92h-265.53c-6.97,0-9.16-1.6-9.16-9.16v-105.21h-90.13v141.88c0,30.79,15.62,45.37,46.44,45.37h318.38v-72.89ZM2501.05,319.49v70.69h102.57v34.17c0,90.1-18.33,146.77-111.7,187.81l35.06,62.58c53.43-19.94,103.63-57.75,126.81-105.77,23.2,45.34,71.79,82.59,118.7,100.9l42.08-73.37c-90.66-34.01-121.96-86.91-121.96-172.7v-33.62h99.79v-70.69h-291.36ZM3023.36,444.22h-89.57v-133.92h-86.34v503.5h75.52c7.02-29.69,10.82-80.7,10.82-120.63v-176.62h89.57v-72.33Z"/>
  <g>
    <path class="cls-1" d="M563.39,938.98c207.47,0,375.59-168.28,375.59-375.64s-168.12-375.54-375.59-375.54-375.59,168.07-375.59,375.54,168.17,375.64,375.59,375.64"/>
    <polygon class="cls-2" points="548.48 398.49 548.48 727.75 653.11 727.75 653.11 698.43 578.36 698.43 578.36 398.49 548.48 398.49"/>
    <path class="cls-2" d="M443.49,488.37c24.91,0,45.09-20.18,45.09-44.97s-20.18-45.11-45.09-45.11-44.96,20.19-44.96,45.11,20.24,44.97,44.96,44.97"/>
    <path class="cls-2" d="M578.35,249.09c-3.84-.16-11.33-.27-14.94-.27-173.27,0-314.31,141.07-314.31,314.44,0,83.99,32.61,162.86,91.89,222.22,59.58,59.4,138.58,92.07,222.42,92.07s162.86-32.67,222.43-92.07c59.23-59.36,91.85-138.24,91.85-222.22v-14.35l-12.53.1h-211.82v29.18h194.52v4.23c-9.99,148.26-133.75,265.8-284.45,265.8-76.09,0-147.63-29.62-201.47-83.43-53.86-53.82-83.51-125.42-83.51-201.52s29.65-147.73,83.51-201.51c53.83-53.93,125.38-83.54,201.47-83.54,3.44,0,11.52.07,14.94.15v-29.28Z"/>
  </g>
</svg>